<svg width="34" height="33" viewBox="0 0 34 33" fill="none" xmlns="http://www.w3.org/2000/svg">
    <path d="M19.9183 13.6675L17 12.375L19.9183 11.0825L21.25 8.25L22.5817 11.0825L25.5 12.375L22.5817 13.6675L21.25 16.5L19.9183 13.6675ZM5.66666 19.25L6.99833 16.4175L9.91666 15.125L6.99833 13.8325L5.66666 11L4.335 13.8325L1.41666 15.125L4.335 16.4175L5.66666 19.25ZM12.0417 12.375L13.5858 9.06125L17 7.5625L13.5858 6.06375L12.0417 2.75L10.4975 6.06375L7.08333 7.5625L10.4975 9.06125L12.0417 12.375ZM6.375 28.1875L14.875 19.9237L20.5417 25.4237L32.5833 12.2788L30.5858 10.34L20.5417 21.2987L14.875 15.7987L4.25 26.125L6.375 28.1875Z" fill="#545454"/>
</svg>
