<svg width="36" height="36" viewBox="0 0 36 36" fill="none" xmlns="http://www.w3.org/2000/svg">
    <path d="M24.15 17.805C24.337 17.805 24.5163 17.7307 24.6485 17.5985C24.7807 17.4663 24.855 17.287 24.855 17.1C24.855 16.913 24.7807 16.7337 24.6485 16.6015C24.5163 16.4693 24.337 16.395 24.15 16.395C23.963 16.395 23.7837 16.4693 23.6515 16.6015C23.5193 16.7337 23.445 16.913 23.445 17.1C23.445 17.287 23.5193 17.4663 23.6515 17.5985C23.7837 17.7307 23.963 17.805 24.15 17.805ZM17.1 17.805C17.287 17.805 17.4663 17.7307 17.5985 17.5985C17.7307 17.4663 17.805 17.287 17.805 17.1C17.805 16.913 17.7307 16.7337 17.5985 16.6015C17.4663 16.4693 17.287 16.395 17.1 16.395C16.913 16.395 16.7337 16.4693 16.6015 16.6015C16.4693 16.7337 16.395 16.913 16.395 17.1C16.395 17.287 16.4693 17.4663 16.6015 17.5985C16.7337 17.7307 16.913 17.805 17.1 17.805ZM10.05 17.805C10.237 17.805 10.4163 17.7307 10.5485 17.5985C10.6807 17.4663 10.755 17.287 10.755 17.1C10.755 16.913 10.6807 16.7337 10.5485 16.6015C10.4163 16.4693 10.237 16.395 10.05 16.395C9.86302 16.395 9.6837 16.4693 9.55149 16.6015C9.41928 16.7337 9.345 16.913 9.345 17.1C9.345 17.287 9.41928 17.4663 9.55149 17.5985C9.6837 17.7307 9.86302 17.805 10.05 17.805Z" fill="#545454" stroke="#545454" stroke-width="2" stroke-linecap="round" stroke-linejoin="round"/>
    <path d="M17.1 31.2C24.8874 31.2 31.2 24.8874 31.2 17.1C31.2 9.31257 24.8874 3 17.1 3C9.31257 3 3 9.31257 3 17.1C3 19.6676 3.68667 22.0773 4.88658 24.15L3.705 30.495L10.05 29.3134C12.1926 30.5529 14.6248 31.2037 17.1 31.2Z" stroke="#545454" stroke-width="2" stroke-linecap="round" stroke-linejoin="round"/>
</svg>
