<svg width="41" height="45" viewBox="0 0 41 45" fill="none" xmlns="http://www.w3.org/2000/svg">
    <path d="M18 6.83331C26.429 6.83331 33.25 13.8541 33.25 22.5003C33.2498 31.1464 26.4289 38.1663 18 38.1663C9.57112 38.1663 2.75017 31.1464 2.75 22.5003C2.75 13.8541 9.57102 6.83331 18 6.83331ZM18 8.87531C10.6887 8.87531 4.75 14.969 4.75 22.5003C4.75017 30.0314 10.6888 36.1253 18 36.1253C25.3112 36.1253 31.2498 30.0314 31.25 22.5003C31.25 14.969 25.3113 8.87531 18 8.87531Z" fill="#545454" stroke="#545454" stroke-width="0.5"/>
    <path d="M9 31.4648C9 30.6685 9.579 29.9956 10.35 29.9077C16.1363 29.2494 19.89 29.3088 25.6635 29.9224C25.9518 29.9535 26.2251 30.0702 26.4499 30.2583C26.6747 30.4464 26.8414 30.6977 26.9295 30.9816C27.0176 31.2654 27.0234 31.5695 26.9462 31.8567C26.8689 32.1439 26.712 32.4017 26.4945 32.5987C19.6808 38.7029 15.7868 38.6189 9.48 32.6049C9.1725 32.3119 9 31.8949 9 31.4648Z" fill="#545454"/>
    <path fill-rule="evenodd" clip-rule="evenodd" d="M25.5863 30.6885C19.8585 30.0796 16.1588 30.0225 10.4318 30.6739C10.2432 30.6965 10.0694 30.7897 9.94365 30.9358C9.81786 31.0819 9.74891 31.2705 9.75 31.4655C9.75 31.686 9.83925 31.8949 9.99 32.0398C13.116 35.0199 15.4845 36.3665 17.7998 36.375C20.1233 36.3835 22.6193 35.0476 26.0018 32.0182C26.1092 31.9199 26.1866 31.7917 26.2244 31.649C26.2623 31.5064 26.259 31.3555 26.215 31.2147C26.171 31.074 26.0881 30.9494 25.9765 30.8561C25.8649 30.7628 25.7293 30.7041 25.5863 30.6885ZM10.2675 29.1415C16.1145 28.4763 19.923 28.5364 25.7415 29.1554C26.1752 29.2019 26.5863 29.3774 26.9245 29.6604C27.2627 29.9433 27.5133 30.3215 27.6455 30.7486C27.7778 31.1757 27.7861 31.6331 27.6693 32.0649C27.5525 32.4968 27.3157 32.8842 26.988 33.1799C23.5568 36.254 20.6993 37.9282 17.7953 37.9167C14.883 37.9059 12.1515 36.2031 8.97075 33.1699C8.74302 32.9518 8.56147 32.6879 8.43746 32.3945C8.31345 32.1012 8.24963 31.7846 8.25 31.4648C8.24891 30.8901 8.45416 30.3351 8.82643 29.9063C9.1987 29.4775 9.71182 29.2056 10.2675 29.1415Z" fill="#545454"/>
    <path d="M24 19.4167C24 21.0522 23.3679 22.6207 22.2426 23.7772C21.1174 24.9336 19.5913 25.5833 18 25.5833C16.4087 25.5833 14.8826 24.9336 13.7574 23.7772C12.6321 22.6207 12 21.0522 12 19.4167C12 17.7812 12.6321 16.2126 13.7574 15.0562C14.8826 13.8997 16.4087 13.25 18 13.25C19.5913 13.25 21.1174 13.8997 22.2426 15.0562C23.3679 16.2126 24 17.7812 24 19.4167Z" fill="#545454"/>
    <path fill-rule="evenodd" clip-rule="evenodd" d="M18 24.0417C19.1935 24.0417 20.3381 23.5544 21.182 22.687C22.0259 21.8197 22.5 20.6433 22.5 19.4167C22.5 18.19 22.0259 17.0137 21.182 16.1463C20.3381 15.2789 19.1935 14.7917 18 14.7917C16.8065 14.7917 15.6619 15.2789 14.818 16.1463C13.9741 17.0137 13.5 18.19 13.5 19.4167C13.5 20.6433 13.9741 21.8197 14.818 22.687C15.6619 23.5544 16.8065 24.0417 18 24.0417ZM18 25.5833C19.5913 25.5833 21.1174 24.9336 22.2426 23.7772C23.3679 22.6207 24 21.0522 24 19.4167C24 17.7812 23.3679 16.2126 22.2426 15.0562C21.1174 13.8997 19.5913 13.25 18 13.25C16.4087 13.25 14.8826 13.8997 13.7574 15.0562C12.6321 16.2126 12 17.7812 12 19.4167C12 21.0522 12.6321 22.6207 13.7574 23.7772C14.8826 24.9336 16.4087 25.5833 18 25.5833Z" fill="#545454"/>
</svg>
