<svg width="76" height="80" viewBox="0 0 76 80" fill="none" xmlns="http://www.w3.org/2000/svg">
    <rect width="76" height="80" fill="none"/>
    <path d="M53.8333 43.3334H41.1667V56.6667H34.8333V43.3334H22.1667V36.6667H34.8333V23.3334H41.1667V36.6667H53.8333M38 6.66669C33.8415 6.66669 29.7237 7.52888 25.8817 9.20404C22.0397 10.8792 18.5488 13.3345 15.6083 16.4298C9.66963 22.681 6.33333 31.1595 6.33333 40C6.33333 48.8406 9.66963 57.319 15.6083 63.5702C18.5488 66.6655 22.0397 69.1209 25.8817 70.796C29.7237 72.4712 33.8415 73.3334 38 73.3334C46.3985 73.3334 54.4531 69.8215 60.3917 63.5702C66.3304 57.319 69.6667 48.8406 69.6667 40C69.6667 35.6226 68.8476 31.2881 67.2562 27.2439C65.6648 23.1997 63.3322 19.5251 60.3917 16.4298C57.4512 13.3345 53.9603 10.8792 50.1183 9.20404C46.2763 7.52888 42.1585 6.66669 38 6.66669Z" fill="#99c0ff"/>
</svg>
