<svg width="32" height="32" viewBox="0 0 26 26" fill="none" xmlns="http://www.w3.org/2000/svg">
    <path d="M11.7 12.74V16.9C11.7 17.2683 11.8248 17.5773 12.0744 17.8269C12.324 18.0765 12.6325 18.2009 13 18.2C13.3683 18.2 13.6773 18.0752 13.9269 17.8256C14.1765 17.576 14.3009 17.2675 14.3 16.9V12.74L15.47 13.91C15.7083 14.1483 16.0117 14.2675 16.38 14.2675C16.7483 14.2675 17.0517 14.1483 17.29 13.91C17.5283 13.6717 17.6475 13.3683 17.6475 13C17.6475 12.6317 17.5283 12.3283 17.29 12.09L13.91 8.71C13.65 8.45 13.3467 8.32 13 8.32C12.6533 8.32 12.35 8.45 12.09 8.71L8.71 12.09C8.47167 12.3283 8.3525 12.6317 8.3525 13C8.3525 13.3683 8.47167 13.6717 8.71 13.91C8.94833 14.1483 9.25167 14.2675 9.62 14.2675C9.98833 14.2675 10.2917 14.1483 10.53 13.91L11.7 12.74ZM13 26C11.2017 26 9.51167 25.6585 7.93 24.9756C6.34833 24.2927 4.9725 23.3666 3.8025 22.1975C2.6325 21.0275 1.70647 19.6517 1.0244 18.07C0.342333 16.4883 0.000866667 14.7983 0 13C0 11.2017 0.341467 9.51167 1.0244 7.93C1.70733 6.34833 2.63337 4.9725 3.8025 3.8025C4.9725 2.6325 6.34833 1.70647 7.93 1.0244C9.51167 0.342333 11.2017 0.000866667 13 0C14.7983 0 16.4883 0.341467 18.07 1.0244C19.6517 1.70733 21.0275 2.63337 22.1975 3.8025C23.3675 4.9725 24.294 6.34833 24.9769 7.93C25.6598 9.51167 26.0009 11.2017 26 13C26 14.7983 25.6585 16.4883 24.9756 18.07C24.2927 19.6517 23.3666 21.0275 22.1975 22.1975C21.0275 23.3675 19.6517 24.294 18.07 24.9769C16.4883 25.6598 14.7983 26.0009 13 26Z" fill="black"/>
</svg>
